<svg width="84" height="41" viewBox="0 0 84 41" fill="none" xmlns="http://www.w3.org/2000/svg">
<path d="M30.7889 39.1496L27.8938 31.8328H13.4707L10.7335 39.1496H0.942688L16.5764 1.88131H25.3145L40.7903 39.1496H30.7889ZM20.7876 11.8301L16.05 24.6213H25.4198L20.7876 11.8301Z" fill="white"/>
<path d="M61.1181 14.1988C61.1181 16.4096 60.7321 18.4275 59.96 20.2523C59.188 22.042 58.1878 23.8668 56.9596 25.7267L47.9583 39.1496H37.2726L46.5371 26.3057L46.6424 26.1478C46.2564 26.2882 45.8177 26.3935 45.3264 26.4637C44.8702 26.5339 44.4315 26.5689 44.0104 26.5689C42.3611 26.5689 40.7995 26.2882 39.3256 25.7267C37.8517 25.1301 36.5532 24.3055 35.4303 23.2527C34.3073 22.1648 33.4125 20.8839 32.7457 19.4101C32.0789 17.9011 31.7456 16.2342 31.7456 14.4094C31.7456 12.3038 32.1316 10.4088 32.9036 8.72436C33.6757 7.03992 34.7284 5.61867 36.062 4.46061C37.3955 3.30255 38.9571 2.42524 40.7468 1.82866C42.5365 1.197 44.4315 0.881165 46.4318 0.881165C48.4672 0.881165 50.3797 1.197 52.1695 1.82866C53.9592 2.42524 55.5033 3.30255 56.8017 4.46061C58.1352 5.61867 59.188 7.02237 59.96 8.67172C60.7321 10.3211 61.1181 12.1634 61.1181 14.1988ZM52.2747 14.0935C52.2747 12.4793 51.7483 11.0931 50.6956 9.93506C49.6779 8.74191 48.2742 8.14533 46.4845 8.14533C44.6947 8.14533 43.2559 8.70681 42.1681 9.82978C41.1153 10.9176 40.5889 12.3564 40.5889 14.1462C40.5889 15.8306 41.1153 17.2343 42.1681 18.3573C43.2208 19.4451 44.6246 19.9891 46.3792 19.9891C48.1338 19.9891 49.5551 19.4451 50.6429 18.3573C51.7308 17.2694 52.2747 15.8482 52.2747 14.0935Z" fill="white"/>
<path d="M83.4971 26.8321C83.4971 29.1132 83.0935 31.0959 82.2864 32.7803C81.4792 34.4297 80.3914 35.7983 79.0228 36.8862C77.6892 37.974 76.1627 38.7812 74.4432 39.3076C72.7237 39.869 70.9515 40.1498 69.1267 40.1498C67.4422 40.1498 65.828 39.9217 64.2839 39.4655C62.7749 39.0444 61.3887 38.4302 60.1254 37.6231C58.8972 36.816 57.8268 35.8334 56.9144 34.6753C56.0371 33.4822 55.3879 32.1487 54.9668 30.6748L63.0205 28.2007C63.4066 29.4992 64.126 30.5695 65.1787 31.4117C66.2666 32.2539 67.5475 32.6751 69.0214 32.6751C70.5304 32.6751 71.8288 32.2189 72.9167 31.3064C74.0396 30.394 74.6011 29.043 74.6011 27.2533C74.6011 26.1654 74.373 25.253 73.9168 24.516C73.4606 23.7791 72.864 23.2001 72.1271 22.7789C71.4252 22.3227 70.6181 22.0069 69.7057 21.8314C68.7933 21.656 67.8809 21.5683 66.9685 21.5683C65.6349 21.5683 64.1084 21.7262 62.3889 22.042C60.7044 22.3227 59.1955 22.7088 57.8619 23.2001L58.7568 1.88131H81.6021V9.46131H66.6L66.2842 15.3569C66.8456 15.2165 67.4598 15.1288 68.1265 15.0937C68.8284 15.0235 69.46 14.9884 70.0215 14.9884C71.8814 14.9884 73.6361 15.234 75.2854 15.7253C76.9348 16.2166 78.356 16.9711 79.5492 17.9888C80.7774 18.9714 81.7424 20.1996 82.4443 21.6735C83.1461 23.1474 83.4971 24.867 83.4971 26.8321Z" fill="white"/>
</svg>
